<svg width="20" height="20" viewBox="0 0 20 20" fill="none" xmlns="http://www.w3.org/2000/svg">
<path d="M10 2.58323L5.875 6.70823C5.05926 7.52406 4.50374 8.56346 4.27871 9.695C4.05368 10.8265 4.16923 11.9994 4.61076 13.0653C5.05229 14.1311 5.79997 15.0421 6.75924 15.6831C7.71851 16.324 8.8463 16.6661 10 16.6661C11.1537 16.6661 12.2815 16.324 13.2408 15.6831C14.2 15.0421 14.9477 14.1311 15.3892 13.0653C15.8308 11.9994 15.9463 10.8265 15.7213 9.695C15.4963 8.56346 14.9408 7.52406 14.125 6.70823L10 2.58323ZM10 0.226562L15.3033 5.5299C16.3522 6.57879 17.0665 7.91517 17.3559 9.37002C17.6453 10.8249 17.4968 12.3329 16.9291 13.7033C16.3614 15.0738 15.4001 16.2451 14.1668 17.0692C12.9334 17.8933 11.4834 18.3332 10 18.3332C8.51665 18.3332 7.0666 17.8933 5.83324 17.0692C4.59987 16.2451 3.63858 15.0738 3.07092 13.7033C2.50326 12.3329 2.35473 10.8249 2.64411 9.37002C2.93349 7.91517 3.64779 6.57879 4.69667 5.5299L10 0.226562Z" fill="#AEAEB3"/>
</svg>
